<svg viewBox="0 0 94.46 52.86" xmlns="http://www.w3.org/2000/svg"><path d="m25.79 36.14s-20.67-5.14-24.79 16.54m9.56-33.34c0 5.57 4.22 10.08 9.43 10.08s9.43-4.51 9.43-10.08-4.24-10.07-9.42-10.07-9.46 4.51-9.46 10.07zm58.12 15.77s20.67-5.17 24.8 16.53m-9.55-33.33c0 5.57-4.23 10.08-9.44 10.08s-9.43-4.51-9.43-10.08 4.22-10.08 9.43-10.08 9.44 4.52 9.44 10.08zm-59.18 33.85s2.07-20.67 21.71-20.67 22.73 20.67 22.73 20.67m-10.33-38.46c0 7-5.32 12.69-11.89 12.69s-11.88-5.68-11.88-12.69 5.32-12.7 11.91-12.7 11.86 5.68 11.86 12.7z" fill="none" stroke="#fff" stroke-miterlimit="10" stroke-width="2"/></svg>